<svg width="157" height="55" viewBox="0 0 157 55" fill="none" xmlns="http://www.w3.org/2000/svg">
<path d="M15.144 36.0002L15.12 27.0962L10.8 34.3442H8.688L4.368 27.2882V36.0002H0V19.2002H3.912L9.816 28.8962L15.576 19.2002H19.488L19.536 36.0002H15.144Z" fill="#2A2367"/>
<path d="M81.368 32.3282V36.0002H67.88V19.2002H81.056V22.8722H72.584V25.7042H80.048V29.2562H72.584V32.3282H81.368Z" fill="#2A2367"/>
<path d="M101.669 19.2002V36.0002H97.757L90.341 27.0482V36.0002H85.685V19.2002H89.597L97.013 28.1522V19.2002H101.669Z" fill="#2A2367"/>
<path d="M106.701 19.2002H111.453V36.0002H106.701V19.2002Z" fill="#2A2367"/>
<path d="M124.266 36.3362C121.77 36.3362 119.826 35.6562 118.434 34.2962C117.058 32.9362 116.37 31.0082 116.37 28.5122V19.2002H121.122V28.3682C121.122 31.0562 122.186 32.4002 124.314 32.4002C126.426 32.4002 127.482 31.0562 127.482 28.3682V19.2002H132.162V28.5122C132.162 31.0082 131.466 32.9362 130.074 34.2962C128.698 35.6562 126.762 36.3362 124.266 36.3362Z" fill="#2A2367"/>
<path d="M152.229 36.0002L152.181 27.0962L147.861 34.3442H145.749L141.453 27.3362V36.0002H137.061V19.2002H140.973L146.877 28.8962L152.637 19.2002H156.549L156.597 36.0002H152.229Z" fill="#2A2367"/>
<rect x="26.2" y="19" width="7" height="17" fill="#6B5AF9"/>
<rect x="40.2" y="7" width="7" height="41" fill="#6B5AF9"/>
<rect x="54.2" width="7" height="55" fill="#6B5AF9"/>
</svg>
